<svg width="79" height="78" viewBox="0 0 79 78" fill="none" xmlns="http://www.w3.org/2000/svg">
<path fill-rule="evenodd" clip-rule="evenodd" d="M39.5 68.25C55.8613 68.25 69.125 55.1541 69.125 39C69.125 22.8459 55.8613 9.75 39.5 9.75C23.1388 9.75 9.87504 22.8459 9.87504 39C9.87504 55.1541 23.1388 68.25 39.5 68.25ZM39.5 71.5C57.6799 71.5 72.4167 56.9497 72.4167 39C72.4167 21.0503 57.6799 6.5 39.5 6.5C21.3202 6.5 6.58337 21.0503 6.58337 39C6.58337 56.9497 21.3202 71.5 39.5 71.5Z" fill="#140B34"/>
<path d="M19.75 57.8987C19.75 56.2201 21.0206 54.8015 22.7125 54.6162C35.4101 53.2285 43.6475 53.3536 56.3171 54.6471C56.9498 54.7127 57.5494 54.9588 58.0428 55.3553C58.5361 55.7519 58.9019 56.2817 59.0953 56.8801C59.2887 57.4784 59.3014 58.1195 59.1319 58.7249C58.9624 59.3303 58.6179 59.8738 58.1407 60.2891C43.1883 73.1575 34.6431 72.9804 20.8033 60.3021C20.1285 59.6846 19.75 58.8055 19.75 57.8987Z" fill="#140B34"/>
<path fill-rule="evenodd" clip-rule="evenodd" d="M56.1477 56.2624C43.5785 54.9786 35.4596 54.8584 22.892 56.2315C22.4783 56.2791 22.0969 56.4757 21.8209 56.7836C21.5448 57.0915 21.3935 57.4892 21.3959 57.9004C21.3959 58.3651 21.5918 58.8055 21.9226 59.111C28.7824 65.3933 33.98 68.2321 39.0607 68.25C44.1594 68.2679 49.6368 65.4518 57.0595 59.0655C57.2953 58.8583 57.4651 58.5879 57.5481 58.2872C57.6312 57.9865 57.624 57.6684 57.5274 57.3716C57.4309 57.0749 57.249 56.8122 57.0041 56.6156C56.7592 56.419 56.4616 56.2952 56.1477 56.2624ZM22.5315 53.001C35.3625 51.5986 43.72 51.7254 56.4884 53.0303C57.4402 53.1283 58.3423 53.4983 59.0845 54.0948C59.8266 54.6914 60.3764 55.4886 60.6667 56.3889C60.957 57.2893 60.9751 58.2536 60.7188 59.164C60.4625 60.0743 59.943 60.8911 59.2238 61.5144C51.6941 67.9949 45.4234 71.5244 39.0508 71.5C32.66 71.4773 26.6659 67.8876 19.6859 61.4933C19.1862 61.0337 18.7878 60.4772 18.5156 59.8588C18.2435 59.2403 18.1034 58.5731 18.1043 57.8988C18.1019 56.6872 18.5523 55.5174 19.3692 54.6133C20.1861 53.7093 21.3121 53.1362 22.5315 53.001Z" fill="#140B34"/>
<path d="M52.6667 32.5C52.6667 35.9478 51.2795 39.2544 48.8103 41.6924C46.3411 44.1304 42.9921 45.5 39.5 45.5C36.008 45.5 32.659 44.1304 30.1898 41.6924C27.7206 39.2544 26.3334 35.9478 26.3334 32.5C26.3334 29.0522 27.7206 25.7456 30.1898 23.3076C32.659 20.8696 36.008 19.5 39.5 19.5C42.9921 19.5 46.3411 20.8696 48.8103 23.3076C51.2795 25.7456 52.6667 29.0522 52.6667 32.5Z" fill="#140B34"/>
<path fill-rule="evenodd" clip-rule="evenodd" d="M39.5 42.25C42.1191 42.25 44.6308 41.2228 46.4827 39.3943C48.3346 37.5658 49.375 35.0859 49.375 32.5C49.375 29.9141 48.3346 27.4342 46.4827 25.6057C44.6308 23.7772 42.1191 22.75 39.5 22.75C36.881 22.75 34.3693 23.7772 32.5174 25.6057C30.6654 27.4342 29.625 29.9141 29.625 32.5C29.625 35.0859 30.6654 37.5658 32.5174 39.3943C34.3693 41.2228 36.881 42.25 39.5 42.25ZM39.5 45.5C42.9921 45.5 46.3411 44.1304 48.8103 41.6924C51.2795 39.2544 52.6667 35.9478 52.6667 32.5C52.6667 29.0522 51.2795 25.7456 48.8103 23.3076C46.3411 20.8696 42.9921 19.5 39.5 19.5C36.008 19.5 32.659 20.8696 30.1898 23.3076C27.7206 25.7456 26.3334 29.0522 26.3334 32.5C26.3334 35.9478 27.7206 39.2544 30.1898 41.6924C32.659 44.1304 36.008 45.5 39.5 45.5Z" fill="#140B34"/>
</svg>
