<svg width="172" height="142" viewBox="0 0 172 142" fill="none" xmlns="http://www.w3.org/2000/svg">
<path d="M111.083 82.8333H105.422L103.415 81.2358C110.681 74.278 114.674 65.3951 114.667 56.2083C114.667 46.0085 109.759 36.2265 101.023 29.0142C92.2865 21.8018 80.4378 17.75 68.0832 17.75C43.5732 17.75 23.5065 33.37 21.7148 53.25H36.1915C37.9832 39.9375 51.4565 29.5833 68.0832 29.5833C85.9282 29.5833 100.333 41.4758 100.333 56.2083C100.333 70.9408 85.9282 82.8333 68.0832 82.8333C66.8648 82.8333 65.7182 82.6558 64.4998 82.5375V94.4892C65.7182 94.6075 66.8648 94.6667 68.0832 94.6667C79.6215 94.6667 90.2282 91.1758 98.3982 85.3775L100.333 87.0342V91.7083L136.167 121.232L146.845 112.417L111.083 82.8333Z" fill="#222222"/>
<path d="M46.3681 64.0183L28.6665 78.6325L10.9648 64.0183L5.87646 68.2191L23.5781 82.8333L5.87646 97.4475L10.9648 101.648L28.6665 87.0341L46.3681 101.648L51.4565 97.4475L33.7548 82.8333L51.4565 68.2191L46.3681 64.0183Z" fill="#222222"/>
</svg>
