<svg width="115" height="113" viewBox="0 0 115 113" fill="none" xmlns="http://www.w3.org/2000/svg">
<path d="M18.9727 91.0012H12.0302C11.583 91.0012 11.1402 90.9146 10.7271 90.7465C10.3139 90.5783 9.93854 90.3319 9.62235 90.0212C8.98376 89.3937 8.625 88.5426 8.625 87.6552V37.3962C8.625 36.5088 8.98376 35.6578 9.62235 35.0303C10.2609 34.4028 11.127 34.0503 12.0302 34.0503H18.9727C19.8758 34.0503 20.7419 34.4028 21.3805 35.0303C22.0191 35.6578 22.3778 36.5088 22.3778 37.3962V87.6552C22.378 88.0947 22.29 88.5298 22.119 88.9358C21.9479 89.3419 21.6971 89.7108 21.3808 90.0215C21.0646 90.3322 20.6892 90.5787 20.276 90.7468C19.8628 90.9149 19.4199 91.0013 18.9727 91.0012Z" fill="#F6D746"/>
<path d="M8.625 50.0421H22.3778V56.5H8.625V50.0421Z" fill="#E55C30"/>
<path d="M35.0405 91.0012H28.9685C27.9502 91.0009 26.9737 90.6032 26.2537 89.8957C25.5336 89.1882 25.129 88.2287 25.1287 87.2281V25.7719C25.129 24.7713 25.5336 23.8118 26.2537 23.1043C26.9737 22.3968 27.9502 21.9991 28.9685 21.9988H35.0405C36.0588 21.9991 37.0353 22.3968 37.7554 23.1043C38.4754 23.8118 38.8801 24.7713 38.8804 25.7719V87.2281C38.8801 88.2287 38.4754 89.1882 37.7554 89.8957C37.0353 90.6032 36.0588 91.0009 35.0405 91.0012Z" fill="#140B34"/>
<path d="M25.1287 40.7546H38.8815V47.2125H25.1287V40.7546Z" fill="#84206B"/>
<path d="M52.1189 91.0011H44.8992C44.033 91.0011 43.2023 90.663 42.5898 90.0612C41.9773 89.4593 41.6332 88.6431 41.6332 87.7919V40.8642C41.6332 40.013 41.9773 39.1968 42.5898 38.5949C43.2023 37.9931 44.033 37.655 44.8992 37.655H52.1189C52.9851 37.655 53.8158 37.9931 54.4283 38.5949C55.0408 39.1968 55.3849 40.013 55.3849 40.8642V87.7919C55.3849 88.2134 55.3004 88.6307 55.1363 89.02C54.9721 89.4094 54.7316 89.7632 54.4283 90.0612C54.125 90.3592 53.765 90.5956 53.3687 90.7569C52.9725 90.9181 52.5478 91.0011 52.1189 91.0011Z" fill="#140B34"/>
<path d="M41.6312 51.0918H55.384V57.5497H41.6312V51.0918Z" fill="#140B34"/>
<path d="M68.4814 91.0012H61.5388C60.6357 91.0012 59.7696 90.6486 59.131 90.0212C58.4924 89.3937 58.1337 88.5426 58.1337 87.6552V37.3962C58.1337 36.5088 58.4924 35.6578 59.131 35.0303C59.7696 34.4028 60.6357 34.0503 61.5388 34.0503H68.4814C69.3845 34.0503 70.2506 34.4028 70.8892 35.0303C71.5278 35.6578 71.8865 36.5088 71.8865 37.3962V87.6552C71.8867 88.0947 71.7987 88.5298 71.6276 88.9358C71.4566 89.3419 71.2057 89.7108 70.8895 90.0215C70.5733 90.3322 70.1978 90.5787 69.7846 90.7468C69.3714 90.9149 68.9286 91.0013 68.4814 91.0012Z" fill="#F6D746"/>
<path d="M58.1348 46.8125H71.8876V53.2705H58.1348V46.8125Z" fill="#E55C30"/>
<path d="M104.798 86.6744L97.7879 90.2542C97.447 90.4284 97.0745 90.5349 96.6917 90.5676C96.3089 90.6003 95.9233 90.5586 95.5569 90.4448C95.1905 90.3311 94.8505 90.1475 94.5563 89.9047C94.2621 89.6618 94.0195 89.3643 93.8423 89.0293L75.4135 54.1914C75.2363 53.8564 75.1279 53.4904 75.0946 53.1142C75.0613 52.7381 75.1038 52.3592 75.2195 51.9992C75.3353 51.6391 75.5221 51.305 75.7693 51.016C76.0165 50.7269 76.3192 50.4885 76.6601 50.3144L83.6705 46.7345C84.0115 46.5603 84.384 46.4539 84.7668 46.4211C85.1496 46.3884 85.5352 46.4301 85.9016 46.5439C86.268 46.6576 86.608 46.8412 86.9022 47.0841C87.1964 47.327 87.439 47.6244 87.6162 47.9594L106.045 82.7985C106.403 83.4749 106.472 84.2632 106.238 84.9901C106.005 85.7169 105.487 86.3228 104.798 86.6744Z" fill="#F6D746"/>
<path d="M78.042 59.0272L90.3621 53.0215L93.2829 58.8067L80.9628 64.8124L78.042 59.0272Z" fill="#E55C30"/>
</svg>

